<?xml version="1.0" encoding="utf-8"?>
<!-- Generator: Adobe Illustrator 24.0.0, SVG Export Plug-In . SVG Version: 6.00 Build 0)  -->
<svg version="1.1" id="Capa_1" xmlns="http://www.w3.org/2000/svg" xmlns:xlink="http://www.w3.org/1999/xlink" x="0px" y="0px"
	 viewBox="0 0 20 20" style="enable-background:new 0 0 20 20;" xml:space="preserve">
<style type="text/css">
	.st0{fill:#B2B2B2;}
</style>
<path class="st0" d="M5.6,0c-3,0-5.5,2.5-5.5,5.5v8.9c0,3.1,2.5,5.6,5.5,5.6h8.9c3,0,5.5-2.5,5.5-5.5V5.5C20,2.5,17.6,0,14.5,0H5.6z
	 M5.6,2.3h8.9c1.8,0,3.4,1.5,3.4,3.4v8.9c0,1.8-1.5,3.4-3.4,3.4H5.6c-1.8,0-3.4-1.5-3.4-3.4V5.5C2.3,3.7,3.8,2.3,5.6,2.3z M15.6,3.4
	c-0.6,0-1.1,0.5-1.1,1.1s0.5,1.1,1.1,1.1c0.6,0,1.1-0.5,1.1-1.1S16.2,3.4,15.6,3.4z M10.1,4.5C7,4.5,4.6,7,4.6,10s2.5,5.5,5.5,5.5
	s5.5-2.5,5.5-5.5S13.1,4.5,10.1,4.5z M10.1,6.7c1.8,0,3.4,1.5,3.4,3.4s-1.5,3.4-3.4,3.4S6.7,11.9,6.7,10S8.2,6.7,10.1,6.7z"/>
</svg>
