<?xml version="1.0" encoding="utf-8"?>
<!-- Generator: Adobe Illustrator 24.0.0, SVG Export Plug-In . SVG Version: 6.00 Build 0)  -->
<svg version="1.1" id="Capa_1" xmlns="http://www.w3.org/2000/svg" xmlns:xlink="http://www.w3.org/1999/xlink" x="0px" y="0px"
	 viewBox="0 0 20 20" style="enable-background:new 0 0 20 20;" xml:space="preserve">
<style type="text/css">
	.st0{fill:#B2B2B2;}
</style>
<path class="st0" d="M17.2,0H2.8C1.2,0,0,1.2,0,2.8v14.4C0,18.8,1.2,20,2.8,20h14.4c1.5,0,2.8-1.2,2.8-2.8V2.8C20,1.2,18.8,0,17.2,0
	z M6.1,16.7H3.3V7.2h2.8V16.7z M4.7,6.1L4.7,6.1c-0.8,0-1.4-0.6-1.4-1.4c0-0.8,0.6-1.4,1.4-1.4c0.8,0,1.4,0.6,1.4,1.4
	C6.1,5.5,5.6,6.1,4.7,6.1z M13.9,16.7v-5.1c0-1.2-0.7-2.1-1.8-2.1c-0.8,0-1.3,0.6-1.5,1.1c-0.1,0.2-0.1,0.7-0.1,1v5H7.8V7.2h2.8v1.5
	c0.4-0.6,1-1.5,2.6-1.5c2,0,3.5,1.3,3.5,4l0,5.4H13.9z"/>
</svg>
