<?xml version="1.0" encoding="utf-8"?>
<!-- Generator: Adobe Illustrator 24.0.0, SVG Export Plug-In . SVG Version: 6.00 Build 0)  -->
<svg version="1.1" id="Capa_1" xmlns="http://www.w3.org/2000/svg" xmlns:xlink="http://www.w3.org/1999/xlink" x="0px" y="0px"
	 viewBox="0 0 24.1 20" style="enable-background:new 0 0 24.1 20;" xml:space="preserve">
<style type="text/css">
	.st0{fill:#B2B2B2;}
</style>
<g>
	<path class="st0" d="M13.3,12.3v-0.5c0-0.7-0.5-1.2-1.2-1.2c-0.7,0-1.2,0.5-1.2,1.2v0.5c0,0.7,0.5,1.2,1.2,1.2
		C12.7,13.4,13.3,12.9,13.3,12.3z"/>
	<path class="st0" d="M14.1,12.9c-0.3,0.9-1.1,1.5-2,1.5c-0.9,0-1.7-0.6-2-1.5H1.9c-0.5,0-1-0.1-1.4-0.3V18c0,1.1,0.9,1.9,1.9,1.9
		h19.4c1.1,0,1.9-0.9,1.9-1.9v-5.4c-0.4,0.2-0.9,0.3-1.4,0.3L14.1,12.9L14.1,12.9z"/>
	<path class="st0" d="M22.2,3.1h-4.6C17.3,1.4,15.8,0,13.9,0h-3.7C8.4,0,6.9,1.4,6.6,3.1H2c-1.1,0-2,0.9-2,1.9v4.5
		c0,1.1,0.9,1.9,1.9,1.9H10c0-0.6,0.3-1.1,0.6-1.4c0,0,0,0,0,0c0.1-0.1,0.2-0.1,0.3-0.2c0,0,0.1,0,0.1-0.1c0.1,0,0.2-0.1,0.2-0.1
		c0.1,0,0.1,0,0.2-0.1c0.1,0,0.1,0,0.2-0.1c0.1,0,0.3,0,0.4,0c0.1,0,0.3,0,0.4,0c0.1,0,0.1,0,0.2,0.1c0.1,0,0.1,0,0.2,0.1
		c0.1,0,0.2,0.1,0.2,0.1c0,0,0.1,0,0.1,0.1c0.1,0.1,0.2,0.1,0.3,0.2c0,0,0,0,0,0c0.4,0.4,0.6,0.9,0.6,1.4h8.1c1.1,0,1.9-0.9,1.9-1.9
		V5.1C24.2,4,23.3,3.1,22.2,3.1z M8.4,3.1c0.2-0.7,0.9-1.3,1.8-1.3h3.7c0.8,0,1.5,0.5,1.8,1.3H8.4z"/>
</g>
</svg>
